<svg width="1920" height="821" viewBox="0 0 1920 821" fill="none" xmlns="http://www.w3.org/2000/svg">
<mask id="mask0_26_22" style="mask-type:alpha" maskUnits="userSpaceOnUse" x="0" y="0" width="1920" height="821">
<rect width="1920" height="821" fill="white"/>
</mask>
<g mask="url(#mask0_26_22)">
<path fill-rule="evenodd" clip-rule="evenodd" d="M-241.474 -218.642C-241.553 -241.058 -273.185 -266.266 -286.697 -279.262C-313.414 -304.966 -341.2 -328.703 -368.73 -352.819C-396.259 -376.934 -423.862 -400.985 -450.113 -427.46C-467.158 -444.647 -487.186 -464.003 -498.745 -488.544C-523.371 -540.842 -445.728 -533.076 -425.617 -534.22C-374.453 -537.142 -315.767 -535.808 -267.809 -563.042C-239.18 -579.3 -227.764 -606.567 -233.913 -646.307C-235.895 -659.231 -241.761 -674.103 -236.792 -686.693C-231.485 -700.14 -219.276 -707.9 -209.143 -713.104C-172.185 -732.062 -129.692 -734.258 -90.5883 -736.638C-48.4223 -739.253 -5.86004 -738.488 36.0086 -738.69C53.7619 -738.775 72.303 -747.189 89.209 -754.027C111.372 -762.989 133.273 -773.056 155.252 -782.79C203.607 -804.154 253.433 -826.655 304.592 -832.081C336.63 -835.48 371.646 -830.885 396.535 -801.317C409.031 -786.471 415.571 -764.401 422.795 -744.796C431.541 -721.112 439.939 -697.199 449.249 -673.887C479.241 -598.807 522.061 -525.44 591.563 -521.753C602.077 -521.197 612.403 -523.008 622.868 -523.348C629.532 -523.557 635.463 -521.433 637.941 -512.235C644.169 -489.165 624.592 -452.746 616.565 -434.442C598.99 -394.376 579.171 -356.107 560.605 -316.844C548.322 -290.878 527.061 -255.394 526.838 -223.846C526.64 -195.736 554.981 -175.418 570.411 -161.572C584.869 -148.609 611.065 -130.468 612.651 -104.097C613.419 -91.3106 607.027 -80.7137 600.353 -72.4899C588.655 -58.1081 575.177 -47.9623 564.653 -31.5539C547.395 -4.63369 532.977 32.4061 535.32 68.6811C536.946 93.8167 547.817 110.277 561.646 126.012C567.458 132.628 572.175 137.309 572.482 148.049C572.977 165.105 567.914 183.154 563.742 198.968C548.818 255.56 527.621 310.283 504.04 361.378C492.258 386.912 479.529 412.368 463.906 434.15C453.674 448.454 439.875 465.477 424.267 465.457C406.197 465.457 387.076 456.854 369.511 450.421C336.705 438.4 304.295 424.501 272.014 410.244C197.361 377.257 123.409 341.599 50.1597 303.269C-1.4353 276.224 -54.1254 249.141 -102.634 213.186C-112.094 206.125 -121.023 197.893 -129.301 188.6C-138.145 178.84 -149.12 174.473 -160.249 171.217C-229.32 151.011 -304.99 166.524 -374.349 176.251C-391.953 178.715 -409.558 181.193 -427.212 182.919C-442.389 184.403 -460.558 188.659 -475.309 182.265C-504.374 169.681 -478.966 123.299 -468.223 104.4C-430.403 37.8582 -381.607 -18.4403 -336.379 -75.9154C-314.875 -103.287 -293.208 -130.586 -272.873 -159.507C-262.284 -174.542 -241.404 -198.991 -241.474 -218.642Z" stroke="#5BE7C3" stroke-width="2"/>
<path fill-rule="evenodd" clip-rule="evenodd" d="M-228.44 -222.421C-240.033 -246.141 -260.372 -263.673 -277.255 -280.172C-301.55 -303.924 -326.609 -326.356 -351.291 -349.436C-374.63 -371.26 -398.018 -393.333 -419.631 -418.118C-432.81 -433.232 -449.346 -451.306 -455.588 -473.659C-469.129 -522.111 -396.283 -514.76 -378.299 -516.028C-333.59 -519.165 -282.902 -519.883 -241.54 -545.393C-215.713 -561.324 -205.102 -587.742 -210.611 -624.419C-212.514 -637.109 -215.946 -647.943 -211.602 -660.567C-206.579 -675.178 -195.027 -684.287 -184.436 -690.717C-151.26 -710.862 -112.045 -715.142 -76.083 -718.703C-38.9307 -722.382 -0.221582 -724.976 35.7357 -722.284C50.1147 -721.212 66.6654 -727.296 80.8956 -731.961C102.791 -739.149 124.464 -747.441 146.25 -755.152C190.528 -770.834 235.955 -785.941 282.018 -787.66C315.273 -788.901 349.946 -782.171 377.613 -756.158C405.652 -729.779 418.092 -688.887 433.641 -650.014C460.495 -582.809 496.765 -501.097 558.892 -486.898C568.313 -484.742 577.366 -485.911 586.777 -485.382C591.616 -485.114 597.125 -484.265 599.579 -477.972C605.951 -461.636 588.493 -431.768 582.617 -419.255C566.384 -384.675 548.132 -351.788 531.121 -317.875C517.609 -290.947 500.484 -261.026 495.258 -229.106C488.916 -190.371 530.352 -162.809 544.924 -135.534C570.187 -88.2391 522.325 -61.2916 498.728 -38.7416C471.631 -12.8526 449.265 34.3774 473.555 74.4328C482.847 89.7493 494.281 98.8777 498.431 118.866C504.921 150.126 500.013 185.85 494.747 216.75C486.814 263.203 474.259 309.152 457.193 351.135C444.966 381.193 424.682 428.325 394.977 424.79C374.98 422.431 354.651 413.812 335.18 406.193C306.025 394.791 277.238 381.794 248.604 368.294C182.505 337.217 117.136 302.951 53.05 265.261C9.32308 239.536 -112.65 134.405 -121.828 130.654C-149.193 119.48 -180.306 121.447 -208.518 123.179C-246.047 125.479 -283.388 131.438 -320.699 136.96C-338.459 139.573 -356.309 142.769 -374.164 144.056C-386.872 144.971 -403.561 145.755 -414.693 136.012C-436.42 117.004 -412.213 73.5115 -402.203 55.1108C-371.536 -1.29996 -332.742 -50.1505 -296.369 -100.099C-278.519 -124.622 -260.396 -149.106 -244.193 -175.596C-237.658 -186.293 -221.276 -207.771 -228.44 -222.421Z" stroke="#5ACEF2" stroke-width="2"/>
<path fill-rule="evenodd" clip-rule="evenodd" d="M-212.403 -234.586C-244.062 -282.052 -287.757 -317.353 -325.469 -356.995C-344.397 -376.898 -363.444 -397.343 -379.769 -421.049C-388.262 -433.377 -398.866 -448.965 -400.502 -466.149C-404.874 -512.118 -339.217 -505.902 -319.565 -507.647C-281.57 -511.032 -238.648 -513.601 -204.178 -537.059C-183.119 -551.4 -172.748 -574.936 -176.684 -605.872C-178.429 -619.598 -181.146 -631.258 -176.684 -644.736C-172.163 -658.39 -162.743 -668.024 -153.205 -675.247C-125.795 -696.019 -91.7316 -702.659 -60.871 -707.607C-24.6683 -713.37 11.8066 -715.62 48.2592 -714.339C80.1858 -713.235 111.959 -725.66 143.132 -733.85C184.428 -744.693 226.473 -754.164 268.731 -752.733C302.105 -751.595 335.742 -742.661 364.272 -718.915C393.264 -694.731 410.695 -658.534 426.41 -619.474C450.167 -560.426 479.773 -481.3 531.891 -458.874C539.472 -455.606 546.536 -455.246 554.354 -454.678C558.152 -454.403 563.055 -454.318 564.938 -449.096C569.47 -436.52 552.718 -412.141 548.043 -403.644C533.121 -376.519 516.945 -350.616 501.651 -323.85C487.373 -298.863 471.821 -272.823 462.952 -243.541C448.838 -196.905 493.961 -169.636 492.697 -125.197C491.909 -97.608 471.876 -77.8231 456.011 -64.1364C436.479 -47.3058 408.355 -36.2401 398.578 -5.52676C391.296 17.3498 402.723 30.6639 411.523 48.0239C426.435 77.4366 427.451 117.307 425.899 151.354C423.807 197.362 415.632 244.05 401.717 286.338C395.411 305.509 387.687 325.451 376.314 340.34C365.66 354.295 355.577 357.87 341.339 355.014C297.752 346.255 253.744 321.843 211.947 300.038C159.432 272.639 107.641 242.389 57.396 208.356C23.1345 185.146 -11.9004 160.589 -41.9728 128.523C-49.8107 120.163 -57.8369 111.078 -63.5678 100.052C-67.9007 91.7638 -69.7399 84.9205 -77.0424 80.1883C-98.687 66.1682 -128.794 69.835 -151.985 71.2926C-189.068 73.6129 -225.972 79.7896 -262.826 85.3519C-284.332 88.6199 -324.845 98.9013 -342.018 74.2404C-356.841 52.9456 -338.954 16.6373 -329.817 -2.12143C-306.705 -49.5608 -276.975 -91.1961 -249.391 -134.067C-236.749 -153.714 -223.612 -173.512 -213.171 -195.356C-210.504 -200.925 -206.231 -208.304 -205.497 -215.069C-204.674 -222.821 -208.516 -228.736 -212.403 -234.586Z" stroke="#5BE7C3" stroke-width="2"/>
<path fill-rule="evenodd" clip-rule="evenodd" d="M-209.681 -223.536C-238.935 -265.505 -274.178 -299.983 -305.584 -339.256C-319.666 -356.865 -333.886 -375.338 -344.616 -396.819C-350.387 -408.371 -356.515 -422.912 -354.924 -437.27C-350.357 -478.479 -296.357 -474.757 -274.54 -477.171C-242.123 -480.716 -204.882 -484.288 -176.218 -506.508C-157.441 -521.062 -150.4 -542.557 -153.905 -570.278C-157.669 -600.014 -149.255 -621.6 -130.106 -638.189C-106.098 -658.97 -75.7928 -667.441 -47.9174 -673.459C-14.333 -680.675 19.6768 -683.873 53.6975 -683.015C86.784 -682.178 118.839 -689.491 151.708 -694.247C195.286 -700.546 240.262 -703.653 283.35 -690.741C320.864 -679.496 354.749 -654.718 380.15 -616.4C406.682 -576.407 419.816 -526.02 441.36 -481.776C454.797 -454.179 473.534 -417.672 498.643 -406.945C507.018 -403.367 522.279 -408.194 515.59 -390.592C511.768 -380.525 504.613 -371.694 498.96 -363.465C489.827 -350.167 480.392 -337.235 471.105 -324.12C451.311 -296.163 430.115 -267.611 415.28 -234.506C396.587 -192.825 424.373 -160.747 420.987 -118.485C419.167 -95.7411 407.178 -77.5893 394.495 -63.3295C386.289 -54.0934 377.309 -46.0935 368.141 -38.63C358.567 -30.8329 347.237 -24.8935 338.888 -14.8135C326.988 -0.468691 332.154 16.5122 334.385 35.0565C338.313 67.6461 339.175 100.751 336.954 133.619C334.237 173.906 327.865 215.345 314.443 251.956C309.222 266.209 302.608 281.319 292.785 290.876C282.963 300.432 272.804 299.778 261.548 296.9C228.164 288.397 194.85 268.61 163.181 249.856C123.545 226.38 84.6867 200.143 47.5789 170.296C21.9645 149.691 -3.73421 127.431 -25.1639 99.4937C-31.3964 91.363 -37.3265 82.6567 -42.1212 72.9365C-45.4135 66.271 -47.1786 57.6694 -51.9485 52.6588C-66.8729 37.0189 -96.8357 41.6893 -114.338 42.5985C-149.27 44.4104 -183.65 53.0251 -218.537 55.1183C-237.576 56.263 -267.395 59.1411 -281.378 37.758C-294.527 17.6569 -282.617 -14.0024 -274.758 -33.3709C-259.313 -71.4537 -238.563 -105.383 -219.965 -140.784C-212.319 -155.351 -203.939 -170.592 -198.986 -187.226C-194.583 -202.048 -202.184 -212.776 -209.681 -223.536Z" stroke="#5ACEF2" stroke-width="2"/>
<path fill-rule="evenodd" clip-rule="evenodd" d="M-202.486 -222.85C-225.771 -259.781 -253.842 -292.564 -277.296 -330.096C-291.024 -352.075 -314.666 -389.026 -304.049 -420.012C-292.401 -454.063 -251.801 -454.99 -228.333 -457.734C-200.4 -461 -167.598 -465.461 -143.694 -486.722C-136.133 -493.443 -129.693 -502.339 -126.963 -514.057C-124.04 -526.599 -127.236 -537.572 -127.652 -550.126C-128.524 -576.462 -116.604 -597.606 -100.829 -612.126C-78.535 -632.656 -50.6573 -642.362 -24.3253 -649.129C5.50738 -656.761 35.8352 -660.524 66.2241 -660.363C95.2661 -660.233 124.001 -661.082 153.073 -662.062C191.092 -663.368 229.646 -661.258 266.526 -647.94C302.855 -634.811 335.886 -610.206 361.831 -574.013C387.143 -538.695 404.22 -495.527 419.177 -451.555C427.664 -426.596 442.001 -389.3 462.245 -376.693C471.246 -371.083 480.08 -371.468 470.508 -356.876C458.455 -338.502 442.209 -323.76 428.248 -308.044C408.109 -285.366 387.465 -262.243 370.561 -235.28C359.765 -218.062 354.955 -201.354 355.698 -179.061C356.272 -162.078 358.878 -145.271 357.561 -128.223C354.474 -88.2096 330.58 -60.7694 309.455 -35.217C295.865 -18.783 283.454 -6.24841 276.459 17.1289C268.185 44.7585 264.712 74.8179 259.183 103.506C253.109 135.009 246.094 167.779 232.837 195.526C221.035 220.229 206.683 231.307 185.201 224.651C151.695 214.279 118.67 188.726 88.9246 165.087C58.649 141.037 28.8936 113.996 3.80515 80.9382C-9.73985 63.0868 -18.9846 42.1262 -31.0135 22.9488C-46.1439 -1.12747 -80.373 7.99095 -100.715 10.0289C-134.484 13.4124 -240.738 38.7296 -230.934 -43.2707C-226.841 -77.4974 -210.725 -109.085 -198.939 -139.288C-194.054 -151.823 -186.984 -166.866 -185.879 -181.229C-184.676 -196.873 -195.486 -211.733 -202.486 -222.85Z" stroke="#FF8062" stroke-width="2"/>
<path fill-rule="evenodd" clip-rule="evenodd" d="M-190.192 -219.714C-207.986 -253.18 -229.281 -284.798 -244.549 -320.944C-254.454 -344.353 -264.181 -375.631 -251.403 -400.399C-236.982 -428.35 -205.183 -434.866 -181.817 -438.427C-157.744 -442.094 -129.005 -445.178 -109.329 -466.372C-103.069 -473.123 -97.9086 -482.226 -96.9478 -493.127C-96.0217 -503.584 -98.6366 -514.04 -97.7699 -524.686C-95.8286 -548.592 -84.8392 -568.289 -70.6703 -582.575C-28.7581 -624.838 33.6224 -634.236 84.1915 -635.34C109.503 -635.889 135.553 -633.007 161.028 -630.942C194.085 -628.262 227.192 -622.511 258.719 -608.65C325.75 -579.189 370.678 -513.85 402.057 -432.546C411.932 -406.954 419.489 -379.264 434.966 -358.698C442.944 -348.078 441.201 -340.452 433.044 -330.766C420.292 -315.631 404.736 -304.063 390.582 -291.431C370.451 -273.466 349.888 -255.232 332.084 -233.712C319.812 -218.877 311.101 -204.584 308.456 -182.339C306.569 -166.478 307.01 -150.316 305.876 -134.357C303.717 -104.04 296.323 -73.9521 283.234 -48.8046C272.834 -28.8722 260.453 -10.7566 247.656 6.51595C231.02 29.0036 216.951 51.8507 204.317 78.5405C187.568 113.87 164.034 179.039 124.583 161.793C81.0714 142.762 40.2884 94.408 12.3716 47.5571C2.99674 31.8268 -4.69929 12.5349 -17.3428 0.934876C-36.2709 -16.403 -55.4763 -15.7953 -77.99 -15.7234C-111.696 -15.6254 -185.041 -5.97285 -185.834 -72.5797C-186.146 -98.9689 -177.489 -123.92 -173.344 -149.303C-168.669 -177.731 -178.038 -196.906 -190.192 -219.714Z" stroke="#F1B170" stroke-width="2"/>
<path fill-rule="evenodd" clip-rule="evenodd" d="M-176.938 -216.73C-194.539 -260.348 -234.007 -332.022 -203.989 -380.525C-188.132 -406.158 -160.086 -415.79 -136.559 -421.531C-117.625 -426.174 -94.7921 -427.918 -80.4866 -447.601C-69.9717 -462.073 -74.6395 -483.134 -70.6109 -501.25C-65.6112 -523.709 -54.1351 -542.086 -40.0327 -555.899C-0.62446 -594.501 54.1695 -606.348 101.575 -608.869C150.81 -611.481 205.059 -599.262 251.389 -575.758C309.156 -546.442 352.435 -490.932 382.701 -420.636C388.285 -407.66 393.359 -394.344 398.721 -381.211C402.323 -372.401 407.665 -363.878 410.504 -354.611C415.231 -339.16 409.662 -326.53 400.732 -316.459C387.889 -301.961 372.111 -291.643 357.469 -280.763C337.445 -265.873 316.976 -251.251 298.349 -233.781C285.832 -222.026 272.731 -209.363 268.252 -188.968C265.194 -175.058 264.56 -160.325 264.669 -145.918C264.907 -115.028 263.678 -90.0485 252.747 -61.7578C234.76 -15.3119 207.1 26.4516 177.88 61.2011C154.947 88.4731 118.661 130.837 85.2482 112.604C55.2696 96.2772 37.7333 57.1979 17.9821 25.6026C8.37903 10.2426 -2.40831 -3.78526 -15.0836 -14.711C-31.0639 -28.4841 -46.1078 -34.2638 -65.0414 -36.5168C-96.9079 -40.3111 -144.958 -41.2973 -154.809 -91.7138C-158.446 -110.32 -156.37 -129.592 -158.277 -148.439C-160.77 -173.36 -168.059 -194.728 -176.938 -216.73Z" stroke="#5BE7C3" stroke-width="2"/>
<path fill-rule="evenodd" clip-rule="evenodd" d="M-158.637 -215.114C-171.17 -262.841 -187.635 -322.99 -157.364 -365.408C-142.702 -385.956 -122.077 -397.443 -102.116 -406.028C-87.8195 -412.18 -65.1199 -413.991 -56.355 -432.905C-49.9175 -446.824 -49.0262 -466.026 -43.2027 -480.939C-35.2004 -501.442 -23.0781 -518.329 -8.85623 -531.549C28.194 -565.997 76.4504 -579.308 120.458 -583.12C216.08 -591.39 313.375 -525.521 364.543 -417.149C379.8 -384.845 399.494 -350.462 374.838 -317.459C347.919 -281.455 307.368 -264.587 275.24 -239.004C262.964 -229.236 247.321 -217.494 240.473 -199.809C236.353 -189.179 236.071 -175.841 235.882 -164.138C235.387 -134.332 233.51 -107.527 224.424 -79.7145C210.39 -36.7343 188.012 2.91808 162.653 35.3984C140.538 63.7206 108.999 97.005 76.8812 76.5872C52.2554 60.8962 36.637 27.5921 17.5028 3.0423C-3.79042 -24.2992 -30.1247 -42.723 -59.0439 -51.7257C-87.1758 -60.4603 -118.031 -66.351 -132.857 -103.46C-137.943 -116.189 -143.256 -132.671 -145.163 -146.761C-148.24 -169.991 -152.747 -192.851 -158.637 -215.114V-215.114Z" stroke="#FF8062" stroke-width="2"/>
<path fill-rule="evenodd" clip-rule="evenodd" d="M-138.23 -214.778C-144.028 -262.972 -144.673 -313.225 -117.733 -351.208C-105.16 -368.929 -89.2671 -381.518 -73.1955 -392.925C-61.371 -401.317 -49.16 -408.397 -40.3288 -422.156C-32.1468 -434.896 -25.9274 -449.688 -18.0279 -462.761C-7.60761 -480.085 4.86062 -495.083 18.8976 -507.176C54.0836 -537.434 96.8866 -551.586 137.836 -556.494C157.659 -558.88 179.162 -560.122 198.852 -553.618C217.867 -547.343 236.669 -537.421 254.153 -525.851C291.321 -501.28 323.534 -465.297 346.886 -419.803C362.898 -388.597 371.555 -358.255 350.821 -326.598C327.444 -290.916 290.791 -271.228 260.581 -248.069C239.861 -232.185 216.638 -216.615 212.768 -182.86C209.685 -156.002 207.182 -130.509 199.209 -105.122C187.341 -67.674 169.892 -33.7518 147.896 -5.36764C127.781 20.4908 102.333 42.434 73.5598 28.6223C50.7633 17.6605 33.0761 -6.89718 13.1588 -24.4543C-9.03809 -44.0638 -33.4255 -54.8753 -59.1063 -63.5688C-82.1853 -71.4127 -103.916 -83.466 -118.833 -109.056C-121.886 -114.286 -125.092 -119.979 -127.446 -125.829C-130.45 -133.294 -130.217 -140.693 -130.806 -149.06C-132.343 -171.14 -135.609 -192.966 -138.23 -214.778Z" stroke="#F1B170" stroke-width="2"/>
<path fill-rule="evenodd" clip-rule="evenodd" d="M263.101 643.649C222.747 675.944 177.127 702.602 134.108 729.698C71.2407 769.29 7.4474 807.817 -58.6096 837.31C-94.0255 853.118 -139.918 875.909 -177.919 863.524C-191.813 858.997 -204.484 845.305 -216.941 836.408C-234.119 824.141 -251.55 812.481 -268.951 800.795C-303.856 777.37 -338.871 754.181 -373.178 729.254C-389.697 717.248 -405.726 702.125 -422.924 691.883C-432.974 685.893 -445 688.695 -455.739 689.074C-480.614 689.956 -505.475 691.628 -530.335 693.052C-560.744 694.79 -591.221 696.638 -621.664 695.952C-635.394 695.639 -669.022 698.853 -676.581 683.254C-680.648 674.853 -671.063 659.705 -666.62 652.696C-658.462 639.815 -649.085 628.207 -639.833 616.717C-618.434 590.144 -595.709 564.838 -576.688 535.155C-566.915 519.896 -554.111 501.253 -560.491 480.422C-566.93 459.382 -578.085 441.163 -584.891 420.195C-592.727 396.065 -595.976 370.955 -599.676 345.368C-602.416 326.457 -608.795 309.702 -614.794 292.268C-621.421 272.998 -628.287 253.564 -632.888 233.243C-635.93 219.819 -640.838 195.669 -630.199 187.171C-615.081 175.086 -586.733 184.871 -569.501 188.431C-545.686 193.344 -522.044 199.602 -498.293 204.991C-481.05 208.91 -463.748 213.208 -446.219 213.665C-417.96 214.404 -389.608 211.849 -361.424 209.472C-309.236 205.069 -257.422 199.099 -205.058 199.099C-159.182 199.099 -53.1659 269.104 -28.35 281.431C21.1828 306.038 72.0332 329.364 118.906 362.104C131.587 370.968 151.102 382.778 157.775 401.023C161.891 412.265 159.999 418.764 169.707 426.008C182.952 435.892 199.922 439.772 214.584 444.194C238.196 451.314 261.992 457.343 285.713 463.791C333.69 476.796 381.341 491.507 429.12 505.662C443.564 509.941 461.039 510.888 474.809 518.426C483.686 523.267 482.764 529.361 475.894 536.717C463.843 549.624 446.952 556.79 432.716 564.152C411.858 574.937 390.658 584.559 369.448 594.043C348.238 603.528 326.919 612.719 305.699 622.223C291.682 628.481 275.697 633.57 263.101 643.649Z" stroke="#FF8062" stroke-width="2"/>
<path fill-rule="evenodd" clip-rule="evenodd" d="M229.893 636.545C187.207 668.906 139.823 694.687 94.1442 719.839C35.6829 752.049 -24.1012 782.239 -85.6986 802.374C-121.865 814.188 -164.537 827.232 -201.492 813.684C-214.675 808.85 -224.524 797.984 -235.825 788.394C-248.707 777.45 -262.083 767.422 -275.46 757.551C-302.996 737.233 -330.823 717.608 -358.941 698.677C-373.834 688.609 -390.227 675.127 -407.052 671.634C-420.429 668.854 -435.624 672.877 -449.06 674.048C-473.257 676.154 -497.449 678.326 -521.656 680.171C-549.589 682.297 -577.601 684.259 -605.593 683.919C-621.194 683.729 -647.977 686.863 -659.011 673.564C-668.637 661.959 -633.59 619.988 -627.427 612.014C-608.179 587.117 -587.936 563.41 -570.021 536.786C-559.433 521.087 -546.542 501.992 -542.078 481.183C-538.278 463.449 -545.611 443.242 -549.941 426.849C-555.356 406.315 -559.726 385.029 -566.018 364.926C-571.621 347.016 -580.539 331.061 -588.372 314.779C-596.987 296.868 -605.712 278.663 -612.108 259.123C-616.027 247.1 -622.512 226.965 -614.724 215.504C-605.727 202.29 -577.992 210.925 -566.592 212.809C-543.465 216.682 -520.517 222.438 -497.549 227.593C-459.4 236.149 -423.03 243.633 -384.183 241.84C-333.594 239.499 -283.055 233.991 -232.476 230.942C-213.798 229.804 -194.823 227.514 -176.13 228.751C-165.414 229.464 -157.254 233.781 -151.022 243.522C-142.51 256.814 -122.906 264.173 -109.271 271.801C-88.0123 283.687 -66.4857 294.742 -45.0185 305.941C2.10725 330.537 50.1397 354.244 94.8328 386.056C108.973 396.117 125.163 407.335 135.622 423.957C141.458 433.227 139.987 442.156 143.549 452.008C148.265 464.967 163.773 470.815 173.042 475.054C190.932 483.244 209.556 488.732 228.035 493.874C269.85 505.505 311.764 513.152 354.257 518.784C364.216 520.092 403.429 524.626 382.834 546.474C360.079 570.619 327.221 582.453 300.433 596.059C276.301 608.292 252.148 619.674 229.893 636.545Z" stroke="#5BE7C3" stroke-width="2"/>
<path fill-rule="evenodd" clip-rule="evenodd" d="M170.901 630.56C130.777 659.03 86.3283 680.27 43.1146 700.589C-9.32406 725.244 -63.0771 747.222 -118.075 759.534C-152.624 767.26 -190.714 773.197 -225.03 760.357C-248.465 751.592 -266.593 727.896 -287.175 711.594C-307.758 695.292 -329.174 679.989 -351.23 667.233C-364.918 659.317 -379.644 651.343 -394.875 652.388C-431.909 654.922 -468.898 660.963 -505.972 663.896C-530.497 665.855 -555.072 667.468 -579.672 666.985C-594.507 666.698 -614.886 667.873 -628.019 657.58C-642.536 646.196 -565.24 548.997 -557.934 538.057C-539.618 510.626 -517.438 474.22 -520.98 435.209C-524.367 397.915 -539.048 370.072 -555.653 340.851C-565.076 324.229 -595.295 279.823 -584.096 258.204C-577.698 245.847 -556.61 250.125 -546.591 250.968C-526.847 252.627 -507.211 256.193 -487.571 259.289C-458.934 263.776 -429.508 270.705 -400.747 272.736C-380.72 274.147 -360.574 272.26 -340.512 272.22C-311.746 272.168 -282.979 272.456 -254.213 272.795C-230.06 273.083 -205.703 272.795 -181.633 275.852C-166.67 277.733 -155.312 281.959 -144.579 293.898C-135.24 304.283 -121.15 310.363 -109.247 316.966C-89.5865 327.867 -69.6685 337.971 -49.8149 348.238C-8.2478 369.739 33.7954 390.79 73.582 417.659C91.7443 429.919 122.281 447.083 126.541 476.807C128.079 487.525 129.21 492.155 137.145 498.249C148.409 506.897 161.899 510.796 174.536 514.185C203.997 522.088 234.31 520.906 263.721 528.718C275.699 531.937 291.337 538.887 277.663 554.797C261.708 573.405 238.481 583.633 219.367 595.128C209.824 600.862 199.994 606.231 190.933 613.233C183.975 618.627 178.018 625.544 170.901 630.56Z" stroke="#5ACEF2" stroke-width="2"/>
<path fill-rule="evenodd" clip-rule="evenodd" d="M94.9053 621.672C57.8358 644.796 17.5772 661.608 -21.9583 676.764C-65.8713 693.577 -110.844 707.502 -156.411 713.427C-187.875 717.532 -221.399 718.743 -251.937 706.179C-271.249 698.231 -284.342 681.517 -300.96 667.5C-326.041 646.314 -353.177 629.528 -383.309 633.613C-417.091 638.183 -450.983 641.612 -484.986 643.899C-505.496 645.28 -526.086 646.314 -546.621 645.352C-559.605 644.75 -576.332 643.735 -587.628 635.977C-602.741 625.587 -545.973 546.526 -538.896 535.004C-521.347 506.427 -508.482 476.442 -500.965 441.036C-494.835 412.145 -507.358 389.433 -520.277 367.822C-528.309 354.401 -554.262 320.645 -546.136 303.217C-541.679 293.606 -526.992 294.104 -519.104 293.613C-504.07 292.683 -488.972 293.652 -473.938 294.078C-451.739 294.732 -428.109 290.235 -406.098 293.855C-357.317 301.868 -308.66 308.808 -259.578 314.301C-232.521 317.326 -205.3 320.075 -178.486 325.909C-168.86 328.004 -158.916 330.223 -149.795 334.963C-143.927 338.007 -140.728 343.193 -135.776 347.448C-112.166 367.704 -81.3458 378.127 -54.7544 391.109C-19.4031 408.367 16.1363 425.356 50.5466 445.743C68.6456 456.467 93.9248 468.788 106.379 490.675C110.142 497.287 108.538 502.577 110.905 508.934C113.628 516.267 121.903 518.453 127.246 520.496C139.373 525.138 190.134 532.156 166.742 559.385C155.58 572.354 141.359 580.675 128.776 590.869C124.22 594.561 119.778 598.273 115.98 603.255C109.627 611.609 103.368 616.375 94.9053 621.672Z" stroke="#F1B170" stroke-width="2"/>
<path fill-rule="evenodd" clip-rule="evenodd" d="M13.9321 611.661C-59.248 649.072 -145.012 674.56 -224.796 669.622C-251.328 667.973 -279.875 662.473 -302.874 643.65C-316.435 632.531 -327.272 619.98 -343.563 615.964C-355.323 613.067 -367.986 616.357 -379.816 617.547C-396.949 619.274 -414.093 620.817 -431.252 622.066C-452.524 623.59 -473.866 624.768 -495.178 624.14C-510.406 623.688 -531.435 624.199 -544.664 613.407C-560.458 600.535 -520.256 540.155 -514.599 529.396C-500.889 503.319 -491.278 478.054 -487.804 446.627C-486.782 437.47 -483.338 428.085 -483.785 418.856C-484.251 409.432 -488.653 401.04 -492.717 393.63C-498.031 383.918 -516.47 360.882 -511.19 349.038C-508.273 342.497 -497.321 341.673 -491.645 340.287C-480.996 337.671 -470.194 336.264 -459.481 334.185C-441.305 330.64 -423.258 319.096 -405.018 319.423C-355.968 320.286 -306.209 340.352 -258.141 351.373C-229.565 357.946 -200.795 363.911 -172.566 372.812C-163.634 375.631 -154.435 378.548 -145.945 383.329C-140.02 386.665 -136.214 392.61 -130.726 396.344C-109.682 410.687 -85.4823 419.393 -62.8852 429.046C-33.5496 441.604 -4.11481 453.782 25.0173 467.151C43.2776 475.529 66.758 482.9 82.4926 498.44C93.9847 509.787 86.1298 513.182 80.0662 523.751C76.9698 529.141 77.6844 534.451 76.3397 540.553C74.4194 549.265 68.9909 555.538 63.8998 561.175C56.8786 568.965 47.5251 575.381 41.784 584.93C39.7595 588.292 39.8538 592.465 38.2163 595.395C33.4528 603.93 20.8145 608.142 13.9321 611.661Z" stroke="#FF8062" stroke-width="2"/>
<path fill-rule="evenodd" clip-rule="evenodd" d="M-63.8734 598.331C-123.267 621.852 -189.353 635.245 -252.135 629.029C-273.978 626.864 -295.956 621.832 -316.304 610.782C-325.561 605.77 -332.51 600.183 -342.655 599.882C-366.192 599.188 -389.804 601.616 -413.337 602.198C-430.178 602.617 -447.103 602.767 -463.904 600.981C-475.138 599.79 -490.329 598.364 -499.532 589.276C-512.906 576.041 -488.764 531.047 -483.851 518.616C-475.708 498.001 -467.629 475.082 -470.858 451.228C-471.849 443.933 -473.602 437.488 -473.83 430.049C-474.048 423.657 -473.439 417.756 -475.158 411.645C-477.283 404.069 -486.733 392.311 -483.484 385.337C-481.27 380.574 -474.702 380.352 -470.333 378.827C-463.248 376.355 -456.329 373.112 -449.649 369.131C-442.615 364.918 -436.627 358.408 -429.341 354.927C-417.512 349.287 -404.272 348.757 -391.84 348.784C-342.234 348.888 -291.998 361.797 -243.65 375.294C-218.473 382.321 -193.157 389.812 -168.688 400.47C-161.258 403.709 -152.838 406.96 -146.305 412.94C-142.228 416.663 -139.464 421.328 -134.833 424.128C-95.2718 448.035 -49.5339 456.913 -7.5357 474.179C3.39602 478.674 63.9787 501.383 32.3029 522.745C13.0597 535.725 -7.27318 541.627 -24.8323 559.383C-30.1817 564.781 -33.7481 569.249 -35.8383 577.487C-37.2153 582.969 -33.9016 580.189 -38.5279 585.92C-44.1399 592.809 -56.9538 595.59 -63.8734 598.331Z" stroke="#F1B170" stroke-width="2"/>
</g>
</svg>
