<svg width="1920" height="821" viewBox="0 0 1920 821" fill="none" xmlns="http://www.w3.org/2000/svg">
<mask id="mask0_26_66" style="mask-type:alpha" maskUnits="userSpaceOnUse" x="-5" y="0" width="1930" height="821">
<rect x="-5" width="1930" height="821" fill="white"/>
</mask>
<g mask="url(#mask0_26_66)">
<path fill-rule="evenodd" clip-rule="evenodd" d="M1655.53 928.472C1655.45 906.492 1623.82 881.773 1610.3 869.03C1583.59 843.824 1555.8 820.548 1528.27 796.901C1500.74 773.253 1473.14 749.669 1446.89 723.708C1429.84 706.855 1409.81 687.874 1398.25 663.81C1373.63 612.527 1451.27 620.143 1471.38 619.021C1522.55 616.155 1581.23 617.463 1629.19 590.758C1657.82 574.815 1669.24 548.078 1663.09 509.109C1661.11 496.436 1655.24 481.853 1660.21 469.507C1665.52 456.32 1677.72 448.711 1687.86 443.609C1724.81 425.019 1767.31 422.865 1806.41 420.532C1848.58 417.968 1891.14 418.718 1933.01 418.519C1950.76 418.436 1969.3 410.185 1986.21 403.48C2008.37 394.692 2030.27 384.82 2052.25 375.275C2100.61 354.326 2150.43 332.262 2201.59 326.941C2233.63 323.608 2268.65 328.114 2293.53 357.108C2306.03 371.666 2312.57 393.307 2319.8 412.532C2328.54 435.756 2336.94 459.205 2346.25 482.064C2376.24 555.687 2419.06 627.63 2488.56 631.245C2499.08 631.79 2509.4 630.015 2519.87 629.681C2526.53 629.476 2532.46 631.559 2534.94 640.579C2541.17 663.201 2521.59 698.913 2513.57 716.861C2495.99 756.15 2476.17 793.676 2457.61 832.177C2445.32 857.638 2424.06 892.434 2423.84 923.37C2423.64 950.934 2451.98 970.857 2467.41 984.435C2481.87 997.146 2508.07 1014.93 2509.65 1040.79C2510.42 1053.33 2504.03 1063.72 2497.35 1071.79C2485.65 1085.89 2472.18 1095.84 2461.65 1111.93C2444.4 1138.33 2429.98 1174.65 2432.32 1210.22C2433.95 1234.87 2444.82 1251.01 2458.65 1266.44C2464.46 1272.92 2469.17 1277.51 2469.48 1288.05C2469.98 1304.77 2464.91 1322.47 2460.74 1337.98C2445.82 1393.47 2424.62 1447.13 2401.04 1497.23C2389.26 1522.27 2376.53 1547.23 2360.91 1568.59C2350.67 1582.62 2336.87 1599.31 2321.27 1599.29C2303.2 1599.29 2284.08 1590.86 2266.51 1584.55C2233.7 1572.76 2201.29 1559.13 2169.01 1545.15C2094.36 1512.8 2020.41 1477.84 1947.16 1440.25C1895.56 1413.73 1842.87 1387.18 1794.37 1351.92C1784.91 1345 1775.98 1336.92 1767.7 1327.81C1758.85 1318.24 1747.88 1313.96 1736.75 1310.76C1667.68 1290.95 1592.01 1306.16 1522.65 1315.7C1505.05 1318.12 1487.44 1320.55 1469.79 1322.24C1454.61 1323.69 1436.44 1327.87 1421.69 1321.6C1392.63 1309.26 1418.03 1263.78 1428.78 1245.24C1466.6 1179.99 1515.39 1124.79 1560.62 1068.43C1582.12 1041.59 1603.79 1014.82 1624.13 986.46C1634.72 971.716 1655.6 947.742 1655.53 928.472Z" stroke="#5BE7C3" stroke-width="2"/>
<path fill-rule="evenodd" clip-rule="evenodd" d="M1668.56 924.76C1656.97 901.501 1636.63 884.31 1619.75 868.131C1595.45 844.84 1570.39 822.843 1545.71 800.212C1522.37 778.811 1498.98 757.166 1477.37 732.863C1464.19 718.042 1447.65 700.319 1441.41 678.399C1427.87 630.888 1500.72 638.096 1518.7 636.853C1563.41 633.778 1614.1 633.073 1655.46 608.058C1681.29 592.437 1691.9 566.531 1686.39 530.566C1684.49 518.123 1681.05 507.499 1685.4 495.12C1690.42 480.793 1701.97 471.861 1712.56 465.556C1745.74 445.801 1784.95 441.605 1820.92 438.112C1858.07 434.505 1896.78 431.961 1932.74 434.601C1947.11 435.652 1963.67 429.687 1977.9 425.112C1999.79 418.063 2021.46 409.932 2043.25 402.371C2087.53 386.994 2132.96 372.179 2179.02 370.494C2212.27 369.277 2246.95 375.877 2274.61 401.385C2302.65 427.252 2315.09 467.35 2330.64 505.468C2357.5 571.369 2393.76 651.494 2455.89 665.418C2465.31 667.532 2474.37 666.385 2483.78 666.904C2488.62 667.167 2494.13 668 2496.58 674.17C2502.95 690.189 2485.49 719.478 2479.62 731.748C2463.38 765.656 2445.13 797.905 2428.12 831.16C2414.61 857.565 2397.48 886.905 2392.26 918.206C2385.92 956.189 2427.35 983.216 2441.92 1009.96C2467.19 1056.34 2419.32 1082.76 2395.73 1104.87C2368.63 1130.26 2346.26 1176.57 2370.56 1215.85C2379.85 1230.87 2391.28 1239.82 2395.43 1259.42C2401.92 1290.08 2397.01 1325.11 2391.75 1355.41C2383.81 1400.96 2371.26 1446.02 2354.19 1487.18C2341.97 1516.66 2321.68 1562.87 2291.98 1559.41C2271.98 1557.1 2251.65 1548.64 2232.18 1541.17C2203.03 1529.99 2174.24 1517.25 2145.6 1504.01C2079.51 1473.54 2014.14 1439.93 1950.05 1402.98C1906.32 1377.75 1784.35 1274.66 1775.17 1270.98C1747.81 1260.03 1716.69 1261.95 1688.48 1263.65C1650.95 1265.91 1613.61 1271.75 1576.3 1277.17C1558.54 1279.73 1540.69 1282.86 1522.84 1284.12C1510.13 1285.02 1493.44 1285.79 1482.31 1276.24C1460.58 1257.6 1484.79 1214.95 1494.8 1196.91C1525.46 1141.59 1564.26 1093.69 1600.63 1044.71C1618.48 1020.66 1636.6 996.652 1652.81 970.676C1659.34 960.187 1675.72 939.126 1668.56 924.76Z" stroke="#5ACEF2" stroke-width="2"/>
<path fill-rule="evenodd" clip-rule="evenodd" d="M1684.6 912.839C1652.94 866.295 1609.24 831.679 1571.53 792.806C1552.6 773.29 1533.56 753.242 1517.23 729.995C1508.74 717.907 1498.13 702.621 1496.5 685.771C1492.13 640.695 1557.78 646.79 1577.44 645.079C1615.43 641.759 1658.35 639.24 1692.82 616.237C1713.88 602.175 1724.25 579.095 1720.32 548.76C1718.57 535.301 1715.85 523.867 1720.32 510.651C1724.84 497.262 1734.26 487.814 1743.8 480.732C1771.21 460.364 1805.27 453.852 1836.13 449C1872.33 443.349 1908.81 441.142 1945.26 442.398C1977.19 443.481 2008.96 431.297 2040.13 423.267C2081.43 412.634 2123.47 403.347 2165.73 404.75C2199.1 405.865 2232.74 414.627 2261.27 437.912C2290.26 461.626 2307.69 497.121 2323.41 535.423C2347.17 593.324 2376.77 670.915 2428.89 692.905C2436.47 696.11 2443.54 696.462 2451.35 697.02C2455.15 697.289 2460.05 697.372 2461.94 702.493C2466.47 714.825 2449.72 738.731 2445.04 747.063C2430.12 773.662 2413.94 799.062 2398.65 825.308C2384.37 849.81 2368.82 875.345 2359.95 904.058C2345.84 949.789 2390.96 976.528 2389.7 1020.1C2388.91 1047.16 2368.88 1066.56 2353.01 1079.98C2333.48 1096.48 2305.35 1107.34 2295.58 1137.45C2288.3 1159.88 2299.72 1172.94 2308.52 1189.96C2323.43 1218.81 2324.45 1257.9 2322.9 1291.29C2320.81 1336.4 2312.63 1382.18 2298.72 1423.65C2292.41 1442.45 2284.69 1462.01 2273.31 1476.61C2262.66 1490.29 2252.58 1493.8 2238.34 1490.99C2194.75 1482.41 2150.74 1458.47 2108.95 1437.09C2056.43 1410.22 2004.64 1380.56 1954.4 1347.18C1920.13 1324.42 1885.1 1300.34 1855.03 1268.9C1847.19 1260.7 1839.16 1251.79 1833.43 1240.98C1829.1 1232.85 1827.26 1226.14 1819.96 1221.5C1798.31 1207.76 1768.21 1211.35 1745.01 1212.78C1707.93 1215.06 1671.03 1221.11 1634.17 1226.57C1612.67 1229.77 1572.16 1239.85 1554.98 1215.67C1540.16 1194.79 1558.05 1159.19 1567.18 1140.79C1590.29 1094.27 1620.03 1053.45 1647.61 1011.41C1660.25 992.141 1673.39 972.727 1683.83 951.308C1686.5 945.847 1690.77 938.611 1691.5 931.977C1692.33 924.376 1688.48 918.575 1684.6 912.839Z" stroke="#5BE7C3" stroke-width="2"/>
<path fill-rule="evenodd" clip-rule="evenodd" d="M1687.32 923.666C1658.07 882.512 1622.82 848.703 1591.42 810.192C1577.33 792.925 1563.11 774.811 1552.38 753.747C1546.61 742.419 1540.48 728.161 1542.08 714.081C1546.64 673.672 1600.64 677.321 1622.46 674.955C1654.88 671.478 1692.12 667.976 1720.78 646.187C1739.56 631.915 1746.6 610.838 1743.09 583.654C1739.33 554.495 1747.75 533.329 1766.89 517.062C1790.9 496.684 1821.21 488.378 1849.08 482.477C1882.67 475.401 1916.68 472.264 1950.7 473.105C1983.78 473.926 2015.84 466.755 2048.71 462.092C2092.29 455.915 2137.26 452.869 2180.35 465.53C2217.86 476.556 2251.75 500.853 2277.15 538.428C2303.68 577.644 2316.82 627.053 2338.36 670.439C2351.8 697.501 2370.53 733.298 2395.64 743.818C2404.02 747.326 2419.28 742.593 2412.59 759.853C2408.77 769.725 2401.61 778.384 2395.96 786.453C2386.83 799.493 2377.39 812.174 2368.1 825.035C2348.31 852.449 2327.11 880.447 2312.28 912.909C2293.59 953.781 2321.37 985.236 2317.99 1026.68C2316.17 1048.98 2304.18 1066.78 2291.49 1080.76C2283.29 1089.82 2274.31 1097.66 2265.14 1104.98C2255.57 1112.63 2244.24 1118.45 2235.89 1128.34C2223.99 1142.4 2229.15 1159.06 2231.39 1177.24C2235.31 1209.2 2236.18 1241.66 2233.95 1273.89C2231.24 1313.39 2224.87 1354.03 2211.44 1389.93C2206.22 1403.91 2199.61 1418.72 2189.79 1428.09C2179.96 1437.46 2169.8 1436.82 2158.55 1434C2125.16 1425.66 2091.85 1406.26 2060.18 1387.87C2020.54 1364.85 1981.69 1339.12 1944.58 1309.85C1918.96 1289.65 1893.27 1267.82 1871.84 1240.43C1865.6 1232.45 1859.67 1223.92 1854.88 1214.38C1851.59 1207.85 1849.82 1199.41 1845.05 1194.5C1830.13 1179.16 1800.16 1183.74 1782.66 1184.64C1747.73 1186.41 1713.35 1194.86 1678.46 1196.91C1659.42 1198.03 1629.6 1200.86 1615.62 1179.89C1602.47 1160.18 1614.38 1129.13 1622.24 1110.14C1637.69 1072.8 1658.44 1039.53 1677.04 1004.81C1684.68 990.528 1693.06 975.583 1698.01 959.271C1702.42 944.737 1694.82 934.217 1687.32 923.666Z" stroke="#5ACEF2" stroke-width="2"/>
<path fill-rule="evenodd" clip-rule="evenodd" d="M1694.51 924.344C1671.23 888.13 1643.16 855.983 1619.7 819.18C1605.98 797.627 1582.33 761.393 1592.95 731.008C1604.6 697.619 1645.2 696.709 1668.67 694.019C1696.6 690.817 1729.4 686.442 1753.31 665.594C1760.87 659.003 1767.31 650.279 1770.04 638.789C1772.96 626.491 1769.76 615.731 1769.35 603.42C1768.48 577.595 1780.4 556.862 1796.17 542.624C1818.47 522.493 1846.34 512.975 1872.67 506.339C1902.51 498.855 1932.84 495.165 1963.22 495.323C1992.27 495.451 2021 494.618 2050.07 493.657C2088.09 492.376 2126.65 494.445 2163.53 507.505C2199.86 520.379 2232.89 544.507 2258.83 579.997C2284.14 614.629 2301.22 656.96 2316.18 700.078C2324.66 724.552 2339 761.124 2359.24 773.486C2368.25 778.988 2377.08 778.61 2367.51 792.919C2355.45 810.936 2339.21 825.392 2325.25 840.803C2305.11 863.041 2284.46 885.715 2267.56 912.155C2256.77 929.038 2251.95 945.422 2252.7 967.283C2253.27 983.936 2255.88 1000.42 2254.56 1017.13C2251.47 1056.37 2227.58 1083.28 2206.45 1108.33C2192.86 1124.45 2180.45 1136.74 2173.46 1159.66C2165.19 1186.76 2161.71 1216.23 2156.18 1244.36C2150.11 1275.26 2143.09 1307.39 2129.84 1334.6C2118.04 1358.82 2103.68 1369.68 2082.2 1363.16C2048.7 1352.99 2015.67 1327.93 1985.92 1304.75C1955.65 1281.17 1925.89 1254.65 1900.81 1222.23C1887.26 1204.73 1878.02 1184.18 1865.99 1165.37C1850.86 1141.76 1816.63 1150.7 1796.28 1152.7C1762.52 1156.02 1656.26 1180.85 1666.07 1100.44C1670.16 1066.87 1686.27 1035.9 1698.06 1006.28C1702.95 993.992 1710.02 979.241 1711.12 965.156C1712.32 949.816 1701.51 935.245 1694.51 924.344Z" stroke="#FF8062" stroke-width="2"/>
<path fill-rule="evenodd" clip-rule="evenodd" d="M1706.81 927.411C1689.01 894.594 1667.72 863.591 1652.45 828.146C1642.55 805.191 1632.82 774.521 1645.6 750.233C1660.02 722.824 1691.82 716.435 1715.18 712.943C1739.26 709.348 1768 706.323 1787.67 685.541C1793.93 678.921 1799.09 669.994 1800.05 659.305C1800.98 649.051 1798.36 638.798 1799.23 628.359C1801.17 604.917 1812.16 585.602 1826.33 571.594C1868.24 530.151 1930.62 520.935 1981.19 519.852C2006.5 519.314 2032.55 522.14 2058.03 524.165C2091.09 526.793 2124.19 532.432 2155.72 546.024C2222.75 574.913 2267.68 638.984 2299.06 718.71C2308.93 743.805 2316.49 770.958 2331.97 791.125C2339.94 801.538 2338.2 809.017 2330.04 818.514C2317.29 833.356 2301.74 844.699 2287.58 857.086C2267.45 874.703 2246.89 892.582 2229.08 913.685C2216.81 928.232 2208.1 942.247 2205.46 964.061C2203.57 979.614 2204.01 995.462 2202.88 1011.11C2200.72 1040.84 2193.32 1070.34 2180.23 1095C2169.83 1114.55 2157.45 1132.31 2144.66 1149.25C2128.02 1171.3 2113.95 1193.7 2101.32 1219.88C2084.57 1254.52 2061.03 1318.42 2021.58 1301.51C1978.07 1282.85 1937.29 1235.44 1909.37 1189.49C1900 1174.07 1892.3 1155.15 1879.66 1143.78C1860.73 1126.78 1841.52 1127.37 1819.01 1127.44C1785.3 1127.54 1711.96 1137 1711.17 1071.69C1710.85 1045.81 1719.51 1021.35 1723.66 996.455C1728.33 968.579 1718.96 949.777 1706.81 927.411Z" stroke="#F1B170" stroke-width="2"/>
<path fill-rule="evenodd" clip-rule="evenodd" d="M1720.06 930.341C1702.46 887.57 1662.99 817.287 1693.01 769.725C1708.87 744.59 1736.91 735.145 1760.44 729.516C1779.37 724.962 1802.21 723.253 1816.51 703.951C1827.03 689.76 1822.36 669.108 1826.39 651.343C1831.39 629.32 1842.86 611.3 1856.97 597.756C1896.38 559.902 1951.17 548.286 1998.58 545.814C2047.81 543.252 2102.06 555.234 2148.39 578.282C2206.16 607.029 2249.43 661.462 2279.7 730.393C2285.29 743.117 2290.36 756.175 2295.72 769.053C2299.32 777.692 2304.66 786.049 2307.5 795.136C2312.23 810.288 2306.66 822.673 2297.73 832.548C2284.89 846.764 2269.11 856.882 2254.47 867.551C2234.45 882.152 2213.98 896.49 2195.35 913.621C2182.83 925.148 2169.73 937.565 2165.25 957.564C2162.19 971.204 2161.56 985.651 2161.67 999.778C2161.91 1030.07 2160.68 1054.56 2149.75 1082.31C2131.76 1127.85 2104.1 1168.8 2074.88 1202.88C2051.95 1229.62 2015.66 1271.16 1982.25 1253.28C1952.27 1237.27 1934.73 1198.95 1914.98 1167.97C1905.38 1152.91 1894.59 1139.15 1881.92 1128.44C1865.94 1114.93 1850.89 1109.27 1831.96 1107.06C1800.09 1103.34 1752.04 1102.37 1742.19 1052.93C1738.55 1034.69 1740.63 1015.79 1738.72 997.307C1736.23 972.869 1728.94 951.916 1720.06 930.341Z" stroke="#5BE7C3" stroke-width="2"/>
<path fill-rule="evenodd" clip-rule="evenodd" d="M1738.36 931.926C1725.83 885.126 1709.36 826.145 1739.64 784.55C1754.3 764.4 1774.92 753.136 1794.88 744.718C1809.18 738.686 1831.88 736.91 1840.64 718.363C1847.08 704.714 1847.97 685.885 1853.8 671.261C1861.8 651.156 1873.92 634.597 1888.14 621.633C1925.19 587.854 1973.45 574.801 2017.46 571.063C2113.08 562.954 2210.37 627.544 2261.54 733.813C2276.8 765.49 2296.49 799.205 2271.84 831.568C2244.92 866.874 2204.37 883.414 2172.24 908.5C2159.96 918.078 2144.32 929.592 2137.47 946.934C2133.35 957.359 2133.07 970.437 2132.88 981.913C2132.39 1011.14 2130.51 1037.43 2121.42 1064.7C2107.39 1106.84 2085.01 1145.73 2059.65 1177.58C2037.54 1205.35 2006 1237.99 1973.88 1217.97C1949.26 1202.58 1933.64 1169.92 1914.5 1145.85C1893.21 1119.04 1866.88 1100.97 1837.96 1092.14C1809.82 1083.58 1778.97 1077.8 1764.14 1041.41C1759.06 1028.93 1753.74 1012.77 1751.84 998.953C1748.76 976.174 1744.25 953.758 1738.36 931.926V931.926Z" stroke="#FF8062" stroke-width="2"/>
<path fill-rule="evenodd" clip-rule="evenodd" d="M1758.77 932.251C1752.97 884.993 1752.33 835.716 1779.27 798.469C1791.84 781.093 1807.73 768.748 1823.8 757.563C1835.63 749.333 1847.84 742.391 1856.67 728.899C1864.85 716.406 1871.07 701.901 1878.97 689.082C1889.39 672.094 1901.86 657.387 1915.9 645.528C1951.08 615.858 1993.89 601.981 2034.84 597.167C2054.66 594.828 2076.16 593.61 2095.85 599.988C2114.87 606.141 2133.67 615.871 2151.15 627.216C2188.32 651.31 2220.53 686.595 2243.89 731.206C2259.9 761.806 2268.56 791.559 2247.82 822.601C2224.44 857.592 2187.79 876.898 2157.58 899.607C2136.86 915.183 2113.64 930.45 2109.77 963.55C2106.68 989.887 2104.18 1014.88 2096.21 1039.78C2084.34 1076.5 2066.89 1109.76 2044.9 1137.6C2024.78 1162.95 1999.33 1184.47 1970.56 1170.93C1947.76 1160.18 1930.08 1136.1 1910.16 1118.88C1887.96 1099.65 1863.57 1089.05 1837.89 1080.53C1814.81 1072.83 1793.08 1061.01 1778.17 1035.92C1775.11 1030.79 1771.91 1025.21 1769.55 1019.47C1766.55 1012.15 1766.78 1004.9 1766.19 996.694C1764.66 975.042 1761.39 953.64 1758.77 932.251Z" stroke="#F1B170" stroke-width="2"/>
<path fill-rule="evenodd" clip-rule="evenodd" d="M1781.27 928.391C1781.77 883.503 1790.11 841.08 1812.97 806.097C1822.75 791.133 1834.42 778.806 1845.17 765.093C1853.83 754.038 1862.01 743.766 1871.97 734.656C1895.59 713.085 1914.78 685.171 1939.88 665.962C1973.39 640.283 2011.76 626.088 2049.85 620.413C2068.44 617.639 2087.65 616.67 2106.47 619.803C2122.62 622.493 2138.1 631.937 2152.45 641.599C2180.59 660.525 2207.91 687.424 2226.18 721.457C2266.45 796.487 2187.04 851.037 2146.29 882.983C2127.54 897.678 2098.9 914.698 2091.22 943.806C2085.73 964.6 2082.39 985.747 2075.32 1005.9C2056.34 1060.02 2017.79 1123.67 1966.43 1115.2C1944.45 1111.58 1924.42 1096.87 1903.9 1087C1882.78 1076.83 1860.97 1071.16 1839.01 1064.94C1818.49 1059.13 1802.13 1050.86 1788.88 1028.69C1782.54 1018.1 1783.1 1005.43 1782.54 992.443C1781.62 971.11 1781.05 949.654 1781.27 928.391Z" stroke="#5BE7C3" stroke-width="2"/>
<path fill-rule="evenodd" clip-rule="evenodd" d="M1801.76 922.639C1810.01 854.884 1840.66 780.914 1885.72 741.566C1938.73 695.279 1996.15 656.302 2059.48 645.097C2088.84 639.901 2121.01 637.345 2148.71 654.335C2169.8 667.257 2194.29 686.573 2205.89 713.736C2234.28 780.178 2171.14 833.07 2135.16 863.808C2115.79 880.356 2091.13 896.481 2076.54 920.646C2068.07 934.657 2063.74 953.191 2056.9 968.58C2036.18 1015.21 2002.07 1052.82 1959.57 1059.55C1939.93 1062.66 1920.13 1058.81 1900.64 1055.76C1880.68 1052.63 1860.47 1050.93 1840.63 1046.57C1824.8 1043.09 1806.14 1037.19 1800.31 1015.27C1792.95 987.652 1798.39 950.308 1801.76 922.639Z" stroke="#5ACEF2" stroke-width="2"/>
<path fill-rule="evenodd" clip-rule="evenodd" d="M1821.85 911.757C1833.88 848.055 1859.37 785.919 1902.21 747.89C1924.93 727.725 1951.3 713.805 1976.62 700.052C2005.32 684.465 2035.31 672.365 2065.94 666.364C2104.07 658.888 2165.83 652.149 2185.76 708.349C2205.53 764.131 2155.56 813.502 2126.01 841.637C2107.06 859.661 2086.79 876.203 2068.69 895.907C2058.87 906.589 2051.31 918.931 2043 931.46C2020.05 966.174 1987.32 993.655 1953.96 1008.32C1921.63 1022.55 1881.64 1028.84 1847.51 1024.14C1832.78 1022.12 1822.26 1015.31 1817.8 995.931C1811.63 968.995 1816.88 938.071 1821.85 911.757Z" stroke="#F1B170" stroke-width="2"/>
<path fill-rule="evenodd" clip-rule="evenodd" d="M1841.81 894.599C1853.77 838.513 1879.56 787.285 1917.17 753.623C1959.33 715.888 2013.62 694.919 2063.52 684.256C2090.05 678.592 2147.53 663.236 2161.05 707.185C2174.57 751.133 2135.48 794.443 2112.99 818.285C2085.69 847.177 2056.25 875.074 2026.85 900.997C2001.31 923.536 1974.05 946.58 1946.38 963.986C1930.78 973.86 1914.52 981.922 1897.81 988.076C1885.43 992.597 1869.69 999.34 1856.72 995.975C1823.99 987.476 1836.1 921.416 1841.81 894.599Z" stroke="#FF8062" stroke-width="2"/>
<path fill-rule="evenodd" clip-rule="evenodd" d="M1866.46 877.804C1892.69 771.737 1975.8 719.572 2055.82 701.389C2074.41 697.169 2126.54 681.951 2136.93 714.352C2147 745.767 2114.97 783.022 2099.98 800.673C2053.51 855.368 1996.09 895.922 1941.69 936.098C1924.71 948.638 1894.08 975.851 1873.02 963.298C1850.15 949.644 1861.02 899.797 1866.46 877.804Z" stroke="#5ACEF2" stroke-width="2"/>
<path fill-rule="evenodd" clip-rule="evenodd" d="M1893.33 857.387C1916.14 779.278 1982.49 734.479 2043.49 719.71C2058.43 716.097 2096.38 704.846 2107.7 726.643C2118.17 746.806 2093.18 776.023 2083.83 787.633C2063.01 813.486 2038.34 834.783 2013.97 855.254C1991.44 874.193 1968.66 893.607 1944.95 909.625C1932.46 918.057 1909.04 936.048 1894.85 923.029C1879.57 909.023 1888.26 874.732 1893.33 857.387Z" stroke="#5ACEF2" stroke-width="2"/>
<path fill-rule="evenodd" clip-rule="evenodd" d="M1922.93 834.567C1940.32 783.558 1986.89 750.434 2027.97 739.427C2039.02 736.472 2062.91 728.805 2072.23 742.428C2080.82 754.973 2066.98 773.365 2060.84 781.859C2033.63 819.508 1993.78 853.138 1957.27 873.793C1948.09 878.986 1931.58 889.179 1922.14 878.697C1912.45 867.934 1918.94 846.279 1922.93 834.567Z" stroke="#5BE7C3" stroke-width="2"/>
<path fill-rule="evenodd" clip-rule="evenodd" d="M1159.85 988.572C1159.22 938.531 1138.66 886.524 1148.81 835.535C1157.15 793.658 1199.12 790.162 1224.3 771.189C1244.31 756.116 1255.67 729.414 1266.49 703.795C1276.21 680.795 1284.94 657.103 1295.18 634.48C1301.81 619.855 1313.2 591.137 1327.58 590.618C1341.34 590.119 1353.96 612.498 1361.96 625.727C1372.38 642.971 1381.63 661.355 1391.75 678.874C1408.81 708.425 1429.28 730.298 1452.72 751C1479.39 774.555 1506.5 797.306 1534.05 819.252C1554.34 835.458 1574.77 851.543 1594.26 869.35C1606.5 880.524 1633.49 901.488 1633.61 922.087C1633.67 931.916 1626.48 942.802 1621.62 950.658C1613.41 963.958 1604.05 976.118 1594.66 988.015C1577.17 1010.18 1558.93 1031.33 1540.9 1052.74C1517.49 1080.53 1495.13 1107.87 1474.55 1139.42C1453.28 1172.08 1432.95 1205.81 1412.21 1239.08C1398.16 1261.62 1384.13 1286.93 1363.87 1300.76C1338.49 1318.05 1317.66 1299.82 1292 1299.61C1269.92 1299.42 1271.55 1233.24 1268.74 1214.84C1265.93 1196.21 1259.72 1178.87 1257.32 1160.2C1254.32 1136.89 1254.28 1113.04 1253.54 1089.49C1252.65 1060.67 1252.29 1033.24 1228.49 1022.25C1214.94 1016.01 1200.28 1014.7 1186.26 1010.96C1177.18 1008.53 1160.04 1004.38 1159.85 988.572Z" stroke="#FF8062" stroke-width="2"/>
<path fill-rule="evenodd" clip-rule="evenodd" d="M1170.7 979.674C1168.39 937.727 1154.71 884.038 1167.64 840.738C1178.69 803.736 1213.23 798.939 1236.49 779.501C1255.69 763.469 1264.24 737.234 1273.84 711.46C1281.54 690.785 1289.01 669.911 1297.75 649.897C1304.19 635.147 1314.03 610.246 1327.42 607.193C1339.46 604.448 1352.38 626.432 1359.14 637.616C1369 653.943 1377.43 671.675 1386.14 689.034C1401.45 719.528 1417.12 746.949 1439.53 769.35C1462.03 791.846 1486.65 808.667 1511.53 826.174C1530.99 839.872 1550.36 853.968 1568.85 869.782C1582.63 881.556 1602.43 896.626 1608.74 917.622C1613.73 934.232 1588.42 961.794 1580.96 971.523C1565.59 991.525 1549.32 1010.3 1533.01 1028.96C1513.13 1051.7 1492.61 1071.59 1475.06 1097.53C1443.65 1143.91 1417.41 1201.66 1377 1236.13C1352.63 1256.92 1325.51 1262.24 1298.4 1259.13C1287.67 1257.9 1285.09 1238.29 1283.74 1226.86C1281.49 1207.86 1281.21 1188.54 1279.48 1169.47C1277.86 1151.62 1274.26 1134.65 1271.36 1117.15C1268.43 1099.41 1267.61 1081.23 1265.45 1063.37C1264.11 1052.29 1262.78 1039.38 1256.93 1030.47C1250.88 1021.24 1240.89 1017.38 1232.16 1014.44C1215.76 1008.97 1172.33 1009.28 1170.7 979.674Z" stroke="#5BE7C3" stroke-width="2"/>
<path fill-rule="evenodd" clip-rule="evenodd" d="M1184.67 962.112C1180.78 923.608 1175.33 875.652 1191.18 840.177C1204.14 811.171 1231.78 804.914 1251.52 786.014C1267.94 770.297 1274.15 745.3 1282.3 722.071C1288.99 703.018 1295.71 683.881 1303.81 665.75C1309.96 652 1317.88 633.356 1330.09 628.559C1340.53 624.46 1352.32 642.822 1358.1 651.961C1367.95 667.537 1375.98 684.989 1383.96 702.211C1397.01 730.391 1409.02 760.492 1427.59 783.414C1445.64 805.657 1467.07 818.786 1488.91 833.548C1505.64 844.859 1522.26 856.604 1538.03 870.092C1550.13 880.442 1565.12 892.707 1571.43 909.928C1576.88 924.781 1562.88 942.361 1555.89 952.839C1544.34 970.131 1531.52 985.995 1518.87 1001.92C1505.23 1019.11 1490.12 1034.96 1476.92 1052.56C1449.15 1089.61 1426.97 1130.63 1392.75 1159.02C1370.59 1177.41 1340.77 1194.11 1314.57 1191.11C1295.73 1188.94 1296.97 1135 1295.16 1117.77C1292.19 1089.59 1286.44 1059.98 1277.31 1034.02C1269.48 1011.78 1250.85 1004.92 1233.72 999.931C1222.98 996.799 1211.73 995.108 1201.35 990.267C1189.33 984.656 1186.3 978.252 1184.67 962.112Z" stroke="#5ACEF2" stroke-width="2"/>
<path fill-rule="evenodd" clip-rule="evenodd" d="M1197.7 944.066C1195.38 911.513 1195.9 873.018 1210.91 844.859C1224.07 820.193 1247.49 813.699 1264.14 794.269C1277.14 779.11 1282.25 754.393 1289.24 734.346C1297.79 709.835 1309.76 664.564 1331.32 655.34C1351.37 646.765 1372.34 701.542 1379.6 717.877C1391.09 743.731 1400.7 772.083 1414.64 795.958C1426.64 816.513 1442.72 827.875 1459.79 840.086C1481.55 855.682 1514.6 874.174 1526.23 904.569C1534.91 927.218 1506.7 960.888 1497.07 976.581C1487 992.973 1479.41 1012.4 1469.02 1028.22C1452.61 1053.17 1426.03 1073.26 1404.08 1088.6C1382.75 1103.51 1355.04 1120.02 1330.83 1119.04C1314.93 1118.39 1311.9 1086.61 1308.5 1071.09C1303.64 1049.02 1297.18 1029.24 1283.29 1014.23C1269.15 998.946 1252.49 991.746 1234.97 985.445C1225.98 982.233 1215.73 979.728 1207.68 973.24C1198.79 966.181 1198.59 956.578 1197.7 944.066Z" stroke="#F1B170" stroke-width="2"/>
<path fill-rule="evenodd" clip-rule="evenodd" d="M1213.57 925.3C1213.7 897.177 1218.67 867.187 1233.41 845.493C1245.69 827.424 1264.9 821.384 1276.65 802.912C1285.96 788.287 1290.7 767.757 1296.93 750.774C1304.55 729.963 1315.33 693.607 1334.28 686.384C1352.78 679.353 1369.14 719.397 1376.24 735.242C1386.62 758.476 1395.03 783.104 1405.51 806.274C1413.72 824.452 1423.76 836.168 1437.13 847.884C1452.82 861.645 1474.72 876.889 1483.1 899.657C1489.15 916.141 1474.52 942.481 1469.2 957.003C1465.64 966.757 1462.38 976.664 1460.59 987.236C1459.2 995.468 1459.06 1003.09 1455.02 1010.16C1444.85 1027.94 1422.54 1030.26 1407.41 1036.12C1387.3 1043.9 1365.98 1052.74 1344.94 1054.43C1332.01 1055.48 1325.42 1040.07 1318.04 1029.23C1309.32 1016.41 1296.97 1007.2 1286.19 997.527C1271.96 984.743 1256.48 976.792 1240.46 968.649C1233.23 964.974 1224.74 961.369 1219.14 954.063C1213.3 946.489 1213.53 935.45 1213.57 925.3Z" stroke="#FF8062" stroke-width="2"/>
<path fill-rule="evenodd" clip-rule="evenodd" d="M1230.25 908.603C1232.8 884.983 1240.77 862.408 1254.21 845.71C1264.52 832.891 1278.21 825.673 1286.48 810.271C1294.19 795.913 1299.56 779.587 1305.93 764.236C1312.67 748.007 1322.68 720.881 1338.22 716.464C1354.97 711.708 1367.87 739.071 1375.02 754.237C1384.04 773.402 1390.9 794.022 1398.97 813.847C1405.05 828.624 1412.8 842.138 1421.98 853.94C1431.59 866.382 1444.64 878.297 1449.51 895.405C1453.81 910.558 1445.76 928.89 1444.34 944.254C1442.82 960.669 1445.48 977.911 1437.06 992.006C1419.68 1021.07 1376.06 1015.68 1351.13 1016.31C1326.53 1016.95 1306.75 999.16 1286.84 982.238C1273.69 971.066 1260 961.605 1246.52 951.195C1232.77 940.575 1228 929.39 1230.25 908.603Z" stroke="#5ACEF2" stroke-width="2"/>
<path fill-rule="evenodd" clip-rule="evenodd" d="M1245.74 895.086C1253.3 860.867 1276.89 842.68 1293.76 816.821C1307.56 795.651 1317.91 751.809 1341.15 746.01C1367.54 739.428 1383.34 797.517 1392.52 819.932C1402.7 844.791 1420.83 865.012 1428.37 891.327C1432.33 905.139 1428.93 918.027 1426.82 931.832C1424.51 946.991 1422.77 962.49 1414.78 974.692C1399.06 998.704 1368.36 998.537 1346.25 999.198C1323.36 999.884 1303.12 983.429 1284.88 967.007C1265.54 949.615 1238 930.177 1245.74 895.086Z" stroke="#5ACEF2" stroke-width="2"/>
<path fill-rule="evenodd" clip-rule="evenodd" d="M1258.39 885.806C1266.91 861.427 1284.8 841.607 1299.31 822.896C1311.43 807.298 1324.46 775.897 1342.93 773.659C1364.65 771.019 1377.8 804.549 1386.35 825.109C1394.75 845.312 1406.87 866.643 1411.53 888.816C1416.38 911.914 1403.45 943.022 1391.12 959.366C1377.37 977.592 1354.87 984.326 1335.56 983.599C1315.35 982.859 1296.8 967.797 1281.49 952.173C1265.13 935.471 1248.49 914.108 1258.39 885.806Z" stroke="#FF8062" stroke-width="2"/>
<path fill-rule="evenodd" clip-rule="evenodd" d="M1270.14 881.214C1278.27 860.937 1292.36 843.784 1305.36 828.483C1315.39 816.671 1330.19 796.585 1344.66 796.093C1360.58 795.55 1374.07 812.409 1380.4 829.69C1386.63 846.735 1393.21 868.105 1394.14 886.804C1396.17 927.525 1354.88 973.139 1323.88 969.428C1294.49 965.908 1253.92 921.616 1270.14 881.214Z" stroke="#5ACEF2" stroke-width="2"/>
<path fill-rule="evenodd" clip-rule="evenodd" d="M1280.99 878.981C1292.21 852.561 1319.46 814.896 1344.69 814.002C1373.64 812.979 1380.91 854.893 1377.14 885.268C1373.3 916.269 1339.92 961.141 1313.3 955.078C1287.32 949.161 1267.7 910.314 1280.99 878.981Z" stroke="#5BE7C3" stroke-width="2"/>
</g>
</svg>
